<?xml version="1.0" encoding="iso-8859-1"?>
<!-- Generator: Adobe Illustrator 19.0.0, SVG Export Plug-In . SVG Version: 6.00 Build 0)  -->
<svg version="1.1" id="Capa_1" xmlns="http://www.w3.org/2000/svg" xmlns:xlink="http://www.w3.org/1999/xlink" x="0px" y="0px"
	 viewBox="0 0 512 512" style="enable-background:new 0 0 512 512;" xml:space="preserve">
<g>
	<g>
		<path d="M472.423,0H47.593c-4.15,0-7.515,3.364-7.515,7.515v80.658H7.515C3.365,88.172,0,91.536,0,95.687v32.063
			c0,4.151,3.365,7.515,7.515,7.515h32.564v97.19H7.515c-4.15,0-7.515,3.364-7.515,7.515v32.063c0,4.151,3.365,7.515,7.515,7.515
			h32.564v97.19H7.515c-4.15,0-7.515,3.364-7.515,7.515v32.063c0,4.151,3.365,7.515,7.515,7.515h32.564v80.658
			c0,4.151,3.365,7.515,7.515,7.515h40.078h304.595h80.157C494.245,512,512,494.245,512,472.423V39.577
			C512,17.755,494.245,0,472.423,0z M432.344,15.029c13.535,0,24.548,11.011,24.548,24.548v48.595h-25.049V39.577
			c0-9.268-3.211-17.796-8.568-24.548H432.344z M458.154,123.902l8.243,12.364h-34.553v-33.065h34.553l-8.243,12.364
			C456.471,118.091,456.471,121.378,458.154,123.902z M15.029,120.235v-17.033h65.127v17.033H15.029z M15.029,264.517v-17.033
			h65.127v17.033H15.029z M15.029,408.798v-17.033h65.127v17.033H15.029z M416.814,472.423c0,13.536-11.013,24.548-24.548,24.548
			H87.671H55.108v-73.143h32.564c4.15,0,7.515-3.364,7.515-7.515V384.25c0-4.151-3.365-7.515-7.515-7.515H55.108v-97.19h32.564
			c4.15,0,7.515-3.364,7.515-7.515v-32.063c0-4.151-3.365-7.515-7.515-7.515H55.108v-97.19h32.564c4.15,0,7.515-3.364,7.515-7.515
			V95.687c0-4.151-3.365-7.515-7.515-7.515H55.108V15.029h337.159c13.535,0,24.548,11.011,24.548,24.548V472.423z M456.892,472.423
			c0,13.536-11.013,24.548-24.548,24.548h-9.069c5.357-6.752,8.568-15.28,8.568-24.548V151.295h25.049V472.423z M496.971,472.423
			c0,13.536-11.013,24.548-24.548,24.548h-9.069c5.356-6.752,8.568-15.28,8.568-24.548V151.295h8.517
			c5.88,0,9.524-6.775,6.252-11.683l-13.253-19.879l13.253-19.879c3.271-4.908-0.374-11.683-6.252-11.683h-8.517V39.577
			c0-9.268-3.211-17.796-8.568-24.548h9.069c13.535,0,24.548,11.011,24.548,24.548V472.423z"/>
	</g>
</g>
<g>
	<g>
		<path d="M376.235,184.36h-98.192c-4.15,0-7.515,3.364-7.515,7.515s3.365,7.515,7.515,7.515h90.677v161.315H127.249V194.15
			l12.539-18.808h32.035l13.8,20.7c1.394,2.091,3.739,3.346,6.252,3.346h53.104c4.15,0,7.515-3.364,7.515-7.515
			s-3.365-7.515-7.515-7.515h-49.082l-13.8-20.7c-1.394-2.091-3.739-3.347-6.252-3.347h-40.078c-2.513,0-4.858,1.255-6.252,3.347
			l-16.031,24.047c-0.823,1.233-1.262,2.685-1.262,4.168v176.344c0,4.151,3.365,7.515,7.515,7.515h256.501
			c4.15,0,7.515-3.364,7.515-7.515V191.875C383.75,187.724,380.385,184.36,376.235,184.36z"/>
	</g>
</g>
<g>
	<g>
		<path d="M247.984,240.47c-21.823,0-39.577,17.755-39.577,39.577c0,21.823,17.755,39.577,39.577,39.577
			c21.823,0,39.577-17.755,39.577-39.577C287.562,258.224,269.807,240.47,247.984,240.47z M247.984,304.595
			c-13.535,0-24.548-11.011-24.548-24.548c0-13.536,11.013-24.548,24.548-24.548c13.535,0,24.548,11.011,24.548,24.548
			C272.532,293.583,261.52,304.595,247.984,304.595z"/>
	</g>
</g>
<g>
	<g>
		<path d="M352.188,208.407h-24.047c-4.15,0-7.515,3.364-7.515,7.515v24.047c0,4.151,3.365,7.515,7.515,7.515h24.047
			c4.15,0,7.515-3.364,7.515-7.515v-24.047C359.703,211.771,356.338,208.407,352.188,208.407z M344.673,232.454h-9.018v-9.018h9.018
			V232.454z"/>
	</g>
</g>
<g>
	<g>
		<path d="M328.141,336.658h-1.002c-4.15,0-7.515,3.364-7.515,7.515c0,4.151,3.365,7.515,7.515,7.515h1.002
			c4.15,0,7.515-3.364,7.515-7.515C335.656,340.021,332.291,336.658,328.141,336.658z"/>
	</g>
</g>
<g>
	<g>
		<path d="M352.188,336.658h-1.002c-4.15,0-7.515,3.364-7.515,7.515c0,4.151,3.365,7.515,7.515,7.515h1.002
			c4.15,0,7.515-3.364,7.515-7.515C359.703,340.021,356.338,336.658,352.188,336.658z"/>
	</g>
</g>
<g>
	<g>
		<path d="M167.828,184.36h-24.047c-4.15,0-7.515,3.364-7.515,7.515s3.365,7.515,7.515,7.515h24.047c4.15,0,7.515-3.364,7.515-7.515
			S171.978,184.36,167.828,184.36z"/>
	</g>
</g>
<g>
	<g>
		<path d="M247.984,216.423c-35.083,0-63.624,28.542-63.624,63.624c0,14.839,5.12,28.496,13.668,39.329l-11.466,11.466
			c-2.935,2.936-2.935,7.693,0,10.629c2.896,2.895,7.732,2.895,10.627,0l11.466-11.466c10.834,8.547,24.491,13.667,39.33,13.667
			c35.083,0,63.624-28.542,63.624-63.624C311.609,244.964,283.067,216.423,247.984,216.423z M247.984,328.642
			c-26.795,0-48.595-21.8-48.595-48.595c0-26.795,21.8-48.595,48.595-48.595c26.795,0,48.595,21.8,48.595,48.595
			C296.579,306.842,274.78,328.642,247.984,328.642z"/>
	</g>
</g>
<g>
</g>
<g>
</g>
<g>
</g>
<g>
</g>
<g>
</g>
<g>
</g>
<g>
</g>
<g>
</g>
<g>
</g>
<g>
</g>
<g>
</g>
<g>
</g>
<g>
</g>
<g>
</g>
<g>
</g>
</svg>
