<?xml version="1.0"?>
<svg xmlns="http://www.w3.org/2000/svg" id="Layer_1" data-name="Layer 1" viewBox="0 0 128 128" width="512" height="512"><title>HAND SOAP</title><path d="M76.288,41.982V29.417a1.75,1.75,0,0,0-1.75-1.75H69.122V24h5.083a1.75,1.75,0,0,0,1.75-1.75V13.222a1.75,1.75,0,0,0-1.75-1.75H54.538a1.75,1.75,0,0,0-1.75,1.75v2.764H48.551a14.1,14.1,0,0,0-11.077,5.434l-.652.843A1.75,1.75,0,0,0,39.589,24.4l.652-.843a10.578,10.578,0,0,1,8.31-4.076h4.237V22.25A1.75,1.75,0,0,0,54.538,24h5.083v3.667H54.205a1.75,1.75,0,0,0-1.75,1.75V41.982A27.2,27.2,0,0,0,37.2,66.4v48.381a1.75,1.75,0,0,0,1.75,1.75H89.795a1.75,1.75,0,0,0,1.75-1.75V66.4A27.2,27.2,0,0,0,76.288,41.982Zm-20-27.011H72.455V20.5H56.288ZM63.122,24h2.5v3.667h-2.5Zm-7.167,7.167H72.788v9.4a27.089,27.089,0,0,0-16.833,0ZM40.7,96.25H59.66a1.75,1.75,0,0,0,0-3.5H40.7v-2.5H59.66a1.75,1.75,0,0,0,0-3.5H40.7v-2.5h9.673a1.75,1.75,0,1,0,0-3.5H40.7V77.417H78.622V99.583H40.7Zm47.347,16.778H40.7v-9.945H80.372a1.75,1.75,0,0,0,1.75-1.75V75.667a1.75,1.75,0,0,0-1.75-1.75H40.7V66.4a23.673,23.673,0,1,1,47.347,0Z"/><path d="M51.43,49.607C45.847,53.17,44,60.271,43.925,60.572a1.75,1.75,0,0,0,3.393.859c.016-.061,1.6-6.069,6-8.873a1.75,1.75,0,1,0-1.883-2.951Z"/></svg>
