<svg height="512" viewBox="0 0 60 60" width="512" xmlns="http://www.w3.org/2000/svg"><g id="057---Skin-Care-Products"><path id="Shape" d="m55 18v-2c0-1.6568542-1.3431458-3-3-3h-1v-1c-.0044956-1.4225979-.7666478-2.73502389-2-3.444v-2.439l3.883 4.005c1.1812011 1.0919283 3.0133982 1.0579099 4.1532514-.0771135 1.1398533-1.13502334 1.1816514-2.96705944.0947486-4.1528865l-4.867-4.992c-.5667598-.57468105-1.3398609-.89875696-2.147-.9h-15.117c-1.6568542.00000002-3 1.34314577-3 3s1.3431458 2.99999998 3 3h8v2.556c-1.2333522.70897611-1.9955044 2.0214021-2 3.444v1h-1c-1.6568542 0-3 1.3431458-3 3v2c-2.7600532.0033061-4.9966939 2.2399468-5 5v8h-7.355c1.569-17.313 1.355-13.608 1.355-19 0-1.6568542-1.3431458-3-3-3h-20c-1.65685425 0-3 1.3431458-3 3v4.091c3.5 38.495 3 30.343 3 40.909 0 1.6568542 1.34314575 3 3 3h49c2.7600532-.0033061 4.9966939-2.2399468 5-5v-32c-.0033061-2.7600532-2.2399468-4.9966939-5-5zm-21-15c0-.55228475.4477153-1 1-1h15.117c.2693277-.00049973.5274707.10766076.716.3l4.875 5c.2810813.28674523.3633909.71380736.2090167 1.0844799-.1543742.37067255-.5154903.61306092-.9170167.6155201-.2613545.00281385-.5131332-.09825729-.7-.281l-4.273-4.419c-.1887717-.19258788-.4473256-.30076943-.717-.3h-14.31c-.2652165 0-.5195704-.10535684-.7071068-.29289322s-.2928932-.44189029-.2928932-.70710678zm11 3h2v2h-2zm-2 6c0-1.1045695.8954305-2 2-2h2c1.1045695 0 2 .8954305 2 2v1h-6zm-4 4c0-.5522847.4477153-1 1-1h12c.5522847 0 1 .4477153 1 1v2h-14zm3 22v-3c0-2.209139-1.790861-4-4-4v-7h16v30h-9v-13c0-1.6568542-1.3431458-3-3-3zm-4-5c1.1045695 0 2 .8954305 2 2v3h-20v-3c0-1.1045695.8954305-2 2-2zm-36-21c0-.5522847.44771525-1 1-1h1v2c0 .5522847.44771525 1 1 1s1-.4477153 1-1v-2h2v2c0 .5522847.44771525 1 1 1s1-.4477153 1-1v-2h2v2c0 .5522847.4477153 1 1 1s1-.4477153 1-1v-2h2v2c0 .5522847.4477153 1 1 1s1-.4477153 1-1v-2h2v2c0 .5522847.4477153 1 1 1s1-.4477153 1-1v-2h1c.5522847 0 1 .4477153 1 1v3h-22zm21.905 5-1.269 14h-.636c-2.209139 0-4 1.790861-4 4v3c-1.6568542 0-3 1.3431458-3 3v7h-10.087l-2.813-31zm-18.905 33h10v4.088c-.581 1.251-3.528 1.145-3.964.073-.3127178-.7204525-1.0308248-1.1795506-1.816-1.161h-4.22zm12-5h14c.5522847 0 1 .4477153 1 1v6c0 .5522847-.4477153 1-1 1h-14zm-12 12v-2h4.222c.778 1.72 3.532 2.557 5.778 1.6-.0347842.4743315.0278328.9507649.184 1.4h-9.184c-.55228475 0-1-.4477153-1-1zm13 1c-.5522847 0-1-.4477153-1-1v-2h14c1.6568542 0 3-1.3431458 3-3v-6c0-1.6568542-1.3431458-3-3-3h-14v-2c0-.5522847.4477153-1 1-1h24c.5522847 0 1 .4477153 1 1v16c0 .5522847-.4477153 1-1 1zm40-3c0 1.6568542-1.3431458 3-3 3h-10.184c.1939027-.6477625.2564599-1.3277321.184-2h10c.5522847 0 1-.4477153 1-1v-32c0-.5522847-.4477153-1-1-1h-18c-.5522847 0-1 .4477153-1 1v8h-2v-8c0-1.6568542 1.3431458-3 3-3h18c1.6568542 0 3 1.3431458 3 3z"/><path id="Shape" d="m7 45c.28024393.0009671.54803375-.115705.73815035-.3216012.1901166-.2058963.2851117-.4821203.26184965-.7613988l-1.67-20c-.01764693-.2669357-.14289321-.5152744-.34705585-.6881434-.20416263-.172869-.46975179-.2554593-.73594415-.2288566-.54992575.0461303-.95852814.5290241-.913 1.079l1.67 20c.04118345.5196828.47468815.920544.996.921z"/><circle id="Oval" cx="5" cy="20" r="1"/></g></svg>